
***** The.Big.White.2005.DVDRiP.x264.AC3(5.1).Multisub.mkv-Zen_Bud *****

Format                           : Matroska
File size                        : 1.08 GiB
Duration                         : 1h 44mn
Overall bit rate                 : 1 477 Kbps
Writing application              : HandBrake 0.9.4

Video

Format                           : AVC
Duration                         : 1h 44mn
Bit rate                         : 999 Kbps
Width                            : 720 pixels
Height                           : 576 pixels
Display aspect ratio             : 16:9
Stream size                      : 749 MiB (68%)
Writing library                  : x264 core 79

Audio

Format                           : AC-3
Duration                         : 1h 44mn
Bit rate                         : 448 Kbps
Channel(s)                       : 6 channels
Channel positions                : Front: L C R, Side: L R, LFE
Sampling rate                    : 48.0 KHz
Bit depth                        : 16 bits
Stream size                      : 336 MiB (30%)
Language                         : English

Text #1
Language                         : Danish

Text #2
Language                         : Dutch

Text #3
Language                         : Finnish

Text #4
Language                         : French

Text #5
Language                         : English

Text #6
Language                         : German

Text #7
Language                         : Italian

Text #8
Language                         : Norwegian

Text #9
Language                         : Spanish

Text #10
Language                         : Swedish

Menu
00:00:00.000                     : Chapter 1
00:05:00.340                     : Chapter 2


